<?xml version="1.0" encoding="utf-8"?>
<!-- Generator: Adobe Illustrator 27.6.1, SVG Export Plug-In . SVG Version: 6.00 Build 0)  -->
<svg version="1.1" id="Layer_1" xmlns="http://www.w3.org/2000/svg" xmlns:xlink="http://www.w3.org/1999/xlink" x="0px" y="0px"
	 viewBox="0 0 2834.9 2834.9" style="enable-background:new 0 0 2834.9 2834.9;" xml:space="preserve">
<style type="text/css">
	.st0{fill-rule:evenodd;clip-rule:evenodd;}
</style>
<path class="st0" d="M989.4,2289.3C850,2148.5,645.6,1944.1,567.7,1795c-42.2-80.7,0.5-120.6,9-242.3
	c11.4-165.1-31.8-199.3-17.6-298c12.8-88.5,80.6-286.7,116-357.5c35.4-70.8,106.2-201.4,106.2-201.4s-59.8-121.7-163.8-225.7
	c-104-104-285.7-88.8-367.4,24.3c-115.1,159.3-61.8,373.9-4.3,511.2c57.5,137.2,236.8,234.6,236.8,234.6s-121.7-42-208-108.4
	c-86.3-66.4-127.2-126.1-165.9-294.8C70,668.1,81,394.8,371.5,311.8c290.5-83,492.7,298.9,492.7,298.9s175.6-127.7,544-139.9
	c351.9-11.6,562.4,139.9,562.4,139.9s202.3-381.9,492.7-298.9c290.5,83,301.5,356.3,262.8,525c-38.7,168.7-79.6,228.4-165.9,294.8
	c-86.3,66.4-208,108.4-208,108.4s177.1-90.7,234.6-228c57.5-137.2,113-358.4-2.1-517.8c-81.7-113.1-263.4-128.4-367.4-24.3
	c-104,104-163.8,225.7-163.8,225.7s70.8,130.6,106.2,201.4c35.4,70.8,103.2,269,116,357.5c14.2,98.7-29,132.9-17.6,298
	c8.4,121.7,51.1,161.6,9,242.3c-78,149.1-282.4,353.5-421.8,494.3l261.6,4.5l-301.7,38.2l273.4,103.4l-297.4-58.1l189.8,170
	L1723.2,2417l0.2-0.6c-72.6,78.3-111.6,118.2-111.6,118.2s-16.8-22.1-55.1-34.6c-45.9-15-113.1-11.5-113.1-11.5s73.1,7.7,115.3,34
	c29.1,18.2,36.5,33.5,36.5,33.5s-38.8,90-178.4,90c-125.8,0-177.6-90-177.6-90s7.4-15.4,36.5-33.5c42.2-26.3,115.3-34,115.3-34
	s-67.2-3.5-113.1,11.5c-38.3,12.5-55.1,34.6-55.1,34.6s-39-39.9-111.6-118.2l0.2,0.6l-247.9,130.3l189.8-170l-297.4,58.1
	l273.4-103.4l-301.7-38.2L989.4,2289.3z M1105.4,1752.9c22.6-90.1-3.2-189.4-75.8-257.1c-72.7-67.7-173.6-86.4-261.9-57.5
	c-22.6,90.1,3.2,189.4,75.9,257.1C916.3,1763.1,1017.2,1781.8,1105.4,1752.9z M1729.5,1752.9c88.2,28.9,189.2,10.2,261.9-57.5
	c72.7-67.7,98.4-167.1,75.8-257.1c-88.2-28.9-189.2-10.2-261.8,57.5C1732.6,1563.5,1706.8,1662.9,1729.5,1752.9"/>
</svg>
